<?xml version="1.0" standalone="no"?>
<!DOCTYPE svg PUBLIC "-//W3C//DTD SVG 20010904//EN"
 "http://www.w3.org/TR/2001/REC-SVG-20010904/DTD/svg10.dtd">
<svg version="1.0" xmlns="http://www.w3.org/2000/svg"
 width="2046.000000pt" height="2046.000000pt" viewBox="0 0 2046.000000 2046.000000"
 preserveAspectRatio="xMidYMid meet">

<g transform="translate(0.000000,2046.000000) scale(0.100000,-0.100000)"
fill="#000000" stroke="none">
<path d="M10158 16834 c-4 -3 -80 -8 -169 -10 -172 -5 -188 -6 -231 -23 -14
-5 -59 -11 -100 -12 -46 -1 -87 -8 -111 -19 -40 -19 -117 -36 -117 -26 0 4 10
11 23 16 16 6 1 9 -58 11 -93 2 -109 0 -113 -11 -2 -5 -9 -7 -17 -4 -7 3 -58
-1 -112 -9 -54 -9 -137 -18 -186 -22 -54 -4 -93 -12 -101 -21 -8 -8 -28 -14
-45 -14 -16 0 -34 -6 -38 -14 -11 -18 -76 -50 -141 -69 -47 -15 -54 -15 -59
-1 -8 21 -70 13 -203 -25 -58 -17 -156 -42 -219 -56 -64 -15 -125 -35 -139
-45 -14 -11 -35 -20 -48 -20 -17 0 -23 -6 -26 -27 -3 -24 -14 -32 -108 -71
-102 -43 -177 -68 -112 -38 33 16 48 55 15 41 -10 -4 -31 -11 -48 -15 -41 -10
-93 -37 -140 -75 -58 -46 -113 -75 -129 -69 -8 3 -30 -11 -50 -31 -20 -20 -58
-46 -84 -58 -71 -33 -123 -68 -117 -78 9 -13 -60 -58 -214 -139 -78 -41 -165
-92 -193 -113 -30 -23 -64 -40 -83 -41 -20 -2 -51 -17 -77 -38 -23 -20 -89
-65 -145 -102 -76 -49 -101 -71 -100 -86 1 -22 12 -26 22 -10 14 23 107 90
117 84 5 -3 24 7 41 22 29 28 30 28 16 4 -9 -14 -58 -53 -110 -88 -51 -34
-112 -81 -136 -104 -35 -34 -45 -39 -57 -29 -13 11 -27 3 -88 -47 -84 -70
-348 -347 -348 -365 0 -14 -115 -129 -143 -144 -34 -18 -146 -135 -209 -218
-34 -45 -68 -82 -74 -81 -31 3 -164 -180 -324 -444 -46 -75 -98 -149 -120
-167 -49 -42 -118 -130 -207 -263 -116 -173 -219 -385 -327 -675 -69 -183 -99
-258 -164 -400 -95 -211 -289 -835 -270 -869 14 -26 -27 -221 -51 -245 -35
-35 -100 -303 -80 -327 13 -16 9 -51 -25 -209 -26 -121 -50 -348 -61 -590 -3
-71 -11 -180 -17 -241 -8 -79 -9 -143 -2 -215 6 -66 6 -106 0 -111 -12 -8 -1
-356 14 -448 6 -35 12 -98 13 -140 2 -62 8 -86 36 -140 56 -111 73 -167 60
-209 -9 -29 -6 -59 11 -151 46 -249 122 -525 172 -623 10 -21 16 -42 13 -46
-14 -24 132 -391 156 -391 4 0 13 -17 20 -37 18 -56 82 -182 134 -262 25 -38
45 -77 45 -85 0 -9 4 -24 10 -34 5 -9 19 -41 31 -69 12 -29 26 -53 31 -53 5 0
23 -30 40 -66 24 -51 28 -68 18 -74 -10 -6 -7 -20 12 -61 37 -80 140 -249 201
-332 30 -39 76 -107 102 -149 25 -43 49 -78 51 -78 3 0 2 5 -1 10 -3 6 -2 10
3 10 5 0 45 -71 90 -158 87 -168 134 -234 222 -306 31 -25 71 -64 89 -87 23
-28 36 -37 41 -29 9 15 47 -9 97 -62 35 -37 83 -106 83 -119 0 -15 -22 -10
-43 8 -11 10 2 -11 29 -46 27 -35 56 -70 64 -77 8 -8 77 -72 153 -144 76 -71
142 -128 147 -127 4 1 33 -20 65 -47 31 -26 77 -59 103 -73 66 -35 112 -71
121 -96 4 -11 32 -39 62 -62 30 -23 53 -48 52 -56 -1 -8 19 -29 45 -46 26 -18
92 -71 147 -118 54 -47 105 -83 112 -81 7 3 26 -6 42 -19 31 -27 51 -32 51
-14 0 17 47 2 94 -30 23 -16 64 -40 93 -54 58 -30 84 -57 29 -30 -47 22 -59 8
-21 -24 36 -29 143 -83 167 -83 31 0 129 -43 139 -62 7 -12 21 -18 47 -18 21
0 64 -13 100 -31 86 -42 183 -75 142 -49 -53 34 117 -24 225 -77 69 -35 186
-83 278 -116 15 -5 27 -16 27 -23 0 -8 24 -20 58 -30 31 -8 109 -33 173 -55
130 -44 135 -45 142 -24 5 11 -9 17 -55 26 -42 9 -56 14 -43 19 13 4 -1 11
-44 20 -40 8 -59 16 -52 23 6 6 27 3 58 -7 26 -8 93 -24 148 -35 133 -26 158
-36 150 -60 -5 -16 2 -22 47 -34 66 -19 143 -33 273 -47 55 -7 208 -32 340
-56 143 -27 252 -42 269 -38 50 11 286 -6 286 -21 0 -16 88 -32 228 -41 88 -6
105 -5 121 10 17 16 31 16 170 5 159 -13 345 -5 643 26 73 8 170 15 216 15 46
0 113 7 150 16 37 8 94 21 127 29 33 8 64 10 68 6 14 -14 350 52 508 100 37
11 73 19 80 18 24 -5 62 12 128 58 103 71 156 96 191 88 68 -15 527 168 733
292 32 19 61 33 64 29 13 -13 339 174 360 207 4 7 53 42 108 79 55 36 128 92
163 123 34 31 68 58 75 59 6 1 61 50 121 109 59 59 116 107 125 107 9 0 46 29
81 65 36 36 70 63 77 61 7 -3 34 20 60 51 73 86 182 190 246 235 31 23 67 57
79 77 27 46 78 101 94 101 11 0 42 31 110 113 17 20 34 34 37 31 3 -3 16 2 29
10 14 9 27 14 30 10 3 -3 33 34 65 83 126 187 169 246 193 267 14 11 40 42 58
68 17 25 57 72 87 105 69 72 155 216 155 259 0 23 21 61 76 140 42 60 89 123
104 139 16 17 72 118 125 225 52 107 99 194 103 193 11 -2 63 97 162 309 45
98 87 176 93 175 12 -2 69 106 93 178 9 28 22 57 29 65 13 14 65 126 65 138 0
3 -7 -3 -15 -14 -8 -11 -4 11 11 51 15 39 29 78 31 87 7 23 23 23 23 1 1 -74
92 221 139 452 42 204 56 250 70 240 21 -12 81 245 106 451 9 71 23 157 30
192 17 74 18 82 5 62 -20 -30 -10 25 25 151 57 199 57 200 50 391 -6 134 -10
175 -20 172 -7 -3 -15 5 -19 18 -7 30 -6 176 2 206 11 38 27 26 32 -25 4 -40
6 -30 12 52 7 106 -18 516 -32 525 -4 3 -11 37 -15 75 -4 39 -19 104 -32 145
-19 58 -23 87 -18 125 3 28 1 74 -6 104 -9 41 -8 55 1 61 9 6 8 25 -4 86 -8
44 -20 124 -26 179 -7 55 -18 109 -25 121 -7 12 -17 38 -20 58 -5 25 -12 36
-23 34 -20 -4 -33 23 -71 145 -30 96 -42 156 -17 88 19 -54 40 -53 31 0 -10
69 -26 111 -57 156 -38 57 -70 133 -64 156 2 10 -3 25 -13 35 -30 29 -58 75
-71 117 -18 57 -53 117 -60 104 -9 -14 -67 98 -130 251 -28 68 -67 153 -86
188 -23 40 -34 71 -30 84 3 13 -5 36 -23 62 -15 23 -52 86 -81 141 -55 105
-90 156 -90 135 0 -10 -4 -9 -17 1 -15 12 -16 12 -8 -1 5 -8 18 -28 30 -45 40
-54 60 -89 48 -82 -20 12 -15 -3 10 -37 40 -53 42 -59 17 -44 -12 7 -30 29
-40 48 -10 19 -48 76 -85 125 -87 117 -95 133 -71 150 16 12 15 18 -28 82 -51
77 -238 299 -300 356 -22 20 -50 45 -61 56 -47 43 -133 149 -155 191 -14 27
-57 75 -108 120 -46 41 -103 95 -126 119 -99 107 -147 151 -208 192 -70 47
-198 159 -182 159 6 0 16 -6 24 -12 8 -7 6 -3 -4 9 -10 12 -57 48 -105 79 -47
32 -112 77 -143 101 -31 24 -60 43 -64 43 -16 0 -193 112 -256 162 -36 29
-131 92 -210 140 -78 48 -154 97 -166 108 -13 11 -31 20 -40 20 -8 0 -47 23
-86 51 -39 29 -150 89 -251 136 -99 46 -216 102 -260 124 -44 21 -95 39 -112
39 -18 0 -33 4 -33 10 0 9 -39 22 -149 50 -23 6 -41 14 -38 17 4 3 20 0 37 -6
24 -8 31 -8 28 2 -6 19 -62 43 -202 86 -70 22 -144 50 -164 62 -20 11 -80 32
-134 45 -54 13 -121 33 -149 44 -28 12 -54 18 -57 15 -3 -3 1 -5 8 -5 7 0 11
-2 8 -5 -6 -6 -149 42 -162 55 -7 7 -5 10 4 10 27 0 -5 17 -70 39 -89 28 -258
67 -355 81 -90 12 -231 39 -254 48 -10 4 -12 1 -6 -7 10 -17 -25 -9 -170 36
-183 58 -222 63 -397 56 -105 -4 -156 -10 -155 -17 2 -12 2 -12 -93 -3 -46 5
-59 4 -45 -3 14 -8 3 -9 -40 -5 -60 6 -86 17 -66 29 6 4 11 2 11 -3 0 -6 15
-10 33 -10 23 1 26 3 9 6 -12 2 -20 8 -17 13 2 4 -26 11 -63 15 -37 3 -76 9
-87 11 -11 3 -24 2 -27 -2z m-538 -178 c0 -8 -61 -12 -66 -4 -3 4 11 8 30 8
20 0 36 -2 36 -4z m4080 -862 c0 -2 -7 -4 -15 -4 -8 0 -15 4 -15 10 0 5 7 7
15 4 8 -4 15 -8 15 -10z m-3270 -384 c0 -4 -7 -24 -15 -43 -19 -45 -19 -135
-1 -252 18 -116 31 -145 85 -186 24 -19 49 -42 55 -51 17 -28 -2 -33 -29 -8
-14 13 -25 21 -25 18 0 -3 29 -52 65 -109 45 -73 61 -107 54 -114 -8 -7 -14
-5 -20 5 -5 8 -34 53 -64 100 -30 47 -66 106 -80 132 -24 45 -49 68 -76 68 -8
0 -8 -4 1 -15 19 -23 4 -30 -24 -11 -14 9 -30 16 -35 16 -9 0 -20 -58 -41
-220 -14 -108 -18 -120 -37 -120 -14 0 -15 11 -9 78 3 42 11 93 16 112 6 19
17 107 26 195 21 226 56 386 91 427 14 16 17 16 39 1 13 -8 24 -19 24 -23z
m-441 -49 c25 -17 26 -37 1 -34 -8 1 -37 7 -63 14 -42 11 -50 11 -65 -5 -26
-26 -28 -164 -4 -341 11 -83 23 -181 26 -220 4 -38 9 -96 12 -127 5 -49 3 -58
-10 -58 -9 0 -16 3 -16 8 -1 40 -24 266 -40 379 -21 153 -26 288 -11 341 9 31
9 32 -20 32 -52 0 -112 -41 -77 -52 6 -2 8 -10 4 -16 -12 -20 -48 5 -44 31 5
34 64 61 148 67 92 7 128 3 159 -19z m1149 -29 c17 -22 15 -52 -3 -52 -8 0
-15 9 -15 20 0 17 -7 20 -38 20 -73 0 -161 -89 -221 -222 -32 -72 -42 -122
-42 -229 0 -127 42 -189 130 -189 50 0 139 33 190 69 18 13 35 20 39 17 13
-14 -17 -42 -83 -76 -58 -30 -78 -35 -136 -35 -81 0 -112 18 -146 85 -19 36
-23 61 -23 135 0 164 51 295 154 399 80 82 157 104 194 58z m-1787 8 c11 -6
19 -21 19 -35 0 -31 -7 -31 -29 -3 -16 20 -21 20 -49 9 -41 -17 -78 -68 -116
-155 -27 -64 -30 -82 -30 -181 -1 -137 20 -217 73 -276 49 -54 91 -61 165 -25
29 14 74 49 100 76 45 48 66 61 66 40 0 -16 -70 -89 -115 -120 -129 -89 -236
-49 -291 108 -67 193 -18 446 104 539 46 35 70 40 103 23z m2229 -85 c0 -46
-15 -114 -61 -279 -32 -116 -89 -348 -89 -366 0 -3 30 -5 68 -5 59 0 74 -4
119 -33 44 -28 60 -33 102 -31 28 2 54 -1 58 -5 13 -13 -20 -26 -68 -26 -34 0
-57 8 -95 33 -47 31 -53 32 -141 31 -52 -1 -93 2 -93 7 0 6 6 20 14 32 8 12
22 60 31 107 9 47 34 146 55 220 46 164 70 269 70 308 0 16 3 32 7 35 15 15
23 5 23 -28z m-2763 -1 c2 -6 -29 -20 -69 -33 -40 -13 -83 -27 -95 -32 l-21
-8 29 -78 c16 -43 36 -103 44 -134 l16 -57 48 19 c45 17 61 16 61 -2 0 -4 -22
-15 -50 -24 -38 -13 -50 -21 -50 -37 0 -25 34 -182 56 -255 18 -64 28 -65 110
-22 78 42 111 51 118 34 3 -8 -4 -17 -17 -20 -12 -4 -52 -22 -88 -41 -72 -36
-110 -42 -128 -20 -16 20 -26 55 -71 266 -44 201 -60 259 -96 334 -13 27 -21
52 -18 55 8 9 198 70 208 67 6 -1 11 -7 13 -12z m3424 -154 c103 -25 135 -38
123 -50 -5 -5 -46 0 -97 13 -101 24 -101 24 -110 -53 -3 -26 -16 -80 -28 -120
-24 -81 -23 -84 42 -94 27 -4 39 -11 39 -22 0 -12 -6 -15 -22 -10 -13 4 -39
10 -59 13 l-36 5 -43 -123 c-50 -144 -62 -197 -47 -206 6 -4 51 -10 99 -13 77
-6 122 -20 107 -34 -10 -9 -203 14 -224 28 -20 13 -22 19 -14 60 4 24 40 138
79 253 41 121 75 243 82 291 7 45 15 82 19 82 3 0 44 -9 90 -20z m-3886 -71
c86 -40 107 -101 59 -170 -25 -37 -94 -99 -146 -133 -34 -22 -34 -29 -5 -97
33 -74 80 -246 73 -264 -12 -31 -25 -11 -60 93 -20 59 -63 175 -96 257 -78
201 -95 261 -81 291 14 33 33 30 30 -3 -1 -16 -1 -39 0 -53 3 -22 4 -21 13 10
5 19 21 47 36 63 22 23 34 27 79 27 33 0 70 -8 98 -21z m-570 -131 c33 -15 53
-53 62 -114 5 -38 3 -46 -8 -42 -8 2 -15 15 -17 29 -6 51 -23 86 -47 99 -22
12 -29 11 -53 -7 -33 -24 -47 -74 -38 -136 8 -54 12 -56 130 -67 76 -7 94 -13
124 -37 58 -48 77 -95 76 -193 0 -130 -51 -225 -148 -281 -57 -32 -66 -35 -66
-16 0 7 17 21 37 32 92 49 143 135 150 256 4 62 2 84 -15 122 -26 59 -61 77
-168 87 -90 8 -129 26 -144 66 -25 65 0 167 48 197 33 20 43 21 77 5z m5032
-40 c39 -36 27 -114 -25 -162 -29 -25 -50 -10 -24 18 41 45 54 100 30 124 -7
7 -29 12 -50 12 -32 0 -46 -7 -83 -45 -59 -58 -58 -82 5 -150 82 -88 99 -157
61 -240 -43 -96 -178 -179 -291 -179 -75 0 -140 19 -140 41 0 10 6 13 16 9 49
-19 110 -28 149 -23 94 13 218 101 245 173 19 50 12 108 -18 150 -16 21 -36
45 -46 53 -28 23 -58 91 -52 116 8 31 53 83 91 106 42 26 103 25 132 -3z
m2619 -815 c-7 -7 -26 7 -26 19 0 6 6 6 15 -2 9 -7 13 -15 11 -17z m250 -390
c-8 -9 -57 77 -50 89 4 6 17 -9 31 -36 14 -27 22 -50 19 -53z m-7964 -1895 c3
-9 26 -12 75 -10 44 2 74 -1 78 -8 5 -8 10 -8 20 0 9 8 20 8 32 2 10 -5 39 -8
65 -6 36 2 50 -1 58 -14 8 -13 11 -14 18 -4 10 15 30 13 50 -6 18 -16 37 -10
36 11 -1 10 3 14 9 10 6 -4 36 -7 67 -7 30 -1 61 -5 68 -9 7 -5 12 -4 12 3 0
7 37 9 123 5 67 -3 162 -6 211 -5 74 0 92 -3 106 -18 17 -18 15 -19 -51 -20
-37 -1 -71 3 -74 8 -4 6 -11 8 -16 4 -5 -3 -6 -10 -3 -16 5 -7 2 -8 -7 -2 -8
4 -73 9 -144 9 -72 1 -136 5 -144 9 -8 5 -16 3 -22 -5 -7 -11 -12 -11 -27 -2
-10 6 -25 8 -32 3 -12 -7 -37 -6 -102 5 -16 2 -28 0 -28 -5 0 -6 -13 -10 -30
-10 -16 0 -30 5 -30 10 0 6 -7 10 -15 10 -8 0 -15 -4 -15 -10 0 -13 -368 -7
-395 6 -11 6 -33 9 -50 7 -63 -6 -400 -11 -409 -5 -13 8 -99 3 -135 -8 -17 -4
-46 -5 -65 0 -23 5 -36 4 -36 -2 0 -7 -5 -6 -13 1 -8 6 -18 7 -22 3 -5 -4 -5
-1 -1 6 4 7 2 12 -5 12 -7 0 -10 3 -7 6 7 6 97 13 273 18 72 3 149 8 172 12
30 4 48 3 59 -7 10 -9 18 -9 22 -2 4 6 21 11 37 11 98 0 185 6 197 13 20 13
86 11 90 -3z m2928 1 c3 -4 25 -3 49 2 25 5 56 7 70 4 14 -3 63 -6 109 -7 62
0 82 -4 82 -14 0 -8 -8 -14 -17 -15 -12 0 -8 -5 12 -14 18 -9 67 -14 125 -15
52 0 145 -4 205 -10 167 -15 395 -18 389 -6 -3 6 2 2 10 -8 9 -11 16 -15 16
-9 0 7 11 8 34 3 19 -4 101 -8 184 -9 150 -2 150 -2 176 24 25 25 30 26 99 20
205 -17 284 -19 634 -15 79 1 147 -1 152 -4 24 -16 709 0 816 18 17 3 95 6
173 8 79 1 145 5 147 9 2 3 29 2 59 -1 31 -3 56 -3 56 0 0 4 46 7 103 9 78 1
107 -2 122 -13 17 -14 18 -17 5 -26 -8 -5 -28 -10 -45 -9 -16 0 -46 -2 -65 -4
-19 -2 -37 -1 -40 3 -3 4 -16 10 -30 14 -17 5 -21 4 -11 -2 9 -7 1 -10 -28
-10 -22 0 -46 -4 -53 -8 -8 -5 -9 -2 -4 11 5 14 4 15 -7 7 -12 -10 -52 -19
-122 -27 -16 -1 -30 -4 -30 -5 0 -8 -182 -6 -192 2 -7 6 -31 4 -65 -4 -29 -8
-86 -14 -125 -13 -40 0 -73 -2 -73 -5 0 -3 -30 -5 -68 -5 -57 1 -67 3 -66 18
1 9 -2 17 -7 17 -9 0 -13 -15 -10 -33 1 -5 -9 -5 -21 -1 -13 4 -27 7 -33 6 -5
-1 -86 -3 -178 -5 -148 -3 -167 -2 -162 12 5 12 2 11 -13 -3 -17 -14 -83 -30
-117 -26 -9 1 -337 1 -380 0 -70 -1 -182 6 -192 13 -9 5 -13 3 -13 -7 0 -12
-10 -14 -52 -9 -29 2 -62 5 -73 6 -11 1 -24 5 -30 8 -13 8 -133 4 -162 -5 -13
-4 -48 -2 -79 3 -41 8 -61 8 -71 0 -8 -7 -13 -7 -13 -2 0 6 -17 11 -37 11 -21
1 -94 3 -163 4 -69 2 -128 7 -131 12 -4 5 -19 5 -35 -1 -16 -5 -72 -8 -124 -6
-52 2 -162 5 -245 7 -166 3 -191 8 -198 36 -4 15 -14 19 -46 18 -23 0 -47 5
-55 11 -10 9 -15 8 -19 -3 -5 -11 -20 -14 -68 -10 -35 3 -68 9 -74 14 -7 6
-15 6 -19 2 -4 -4 -26 -7 -49 -8 -23 -1 -58 -2 -77 -4 -19 -2 -57 0 -84 5 -37
6 -50 4 -57 -6 -8 -12 -10 -12 -18 0 -7 10 -24 12 -74 7 -43 -5 -67 -4 -72 3
-3 6 -11 11 -16 11 -6 0 -7 -5 -3 -12 4 -7 3 -8 -5 -4 -6 4 -18 2 -26 -4 -8
-6 -22 -9 -32 -6 -25 7 -133 9 -160 3 -14 -4 -24 0 -27 10 -5 11 -10 12 -19 5
-14 -12 -113 -19 -397 -28 -113 -3 -206 -10 -208 -14 -1 -4 -23 -4 -47 1 -24
4 -76 9 -115 11 -39 1 -73 5 -76 9 -2 4 -19 3 -38 -1 -19 -4 -53 -4 -75 0 -23
4 -61 6 -85 4 -40 -3 -43 -1 -39 17 5 17 13 20 62 18 31 -1 107 2 169 6 86 6
112 5 112 -5 0 -8 8 -10 28 -5 38 11 361 14 394 4 16 -4 30 -3 34 2 6 11 258
10 404 -1 47 -3 103 -3 125 1 22 4 45 3 51 -2 6 -5 14 -6 18 -2 12 12 66 12
66 0 0 -7 4 -7 12 1 7 7 45 12 93 13 44 1 94 4 110 8 42 9 149 9 155 0z m4244
-48 c14 -11 16 -11 16 4 0 15 9 17 69 13 66 -3 101 -15 73 -25 -6 -3 -9 -9 -6
-15 8 -13 -149 -7 -158 7 -5 6 -11 5 -17 -4 -5 -8 -16 -11 -24 -8 -8 3 -23 -3
-33 -14 -19 -21 -98 -27 -110 -8 -4 7 -9 7 -13 2 -9 -14 -61 -25 -61 -13 0 5
-7 10 -15 10 -8 0 -15 6 -15 13 0 8 -16 11 -54 9 -47 -3 -54 -1 -59 17 -5 21
7 29 17 12 3 -5 15 -7 26 -4 11 3 26 0 34 -6 8 -7 17 -8 20 -3 3 5 15 8 28 7
13 -1 29 2 36 8 6 5 12 6 12 1 0 -14 164 -13 172 1 9 15 42 13 62 -4z m-8050
3 c36 -14 15 -31 -39 -33 -30 -1 -67 -6 -81 -11 -31 -12 -113 -10 -120 2 -3 5
-11 5 -17 0 -12 -9 -30 -11 -200 -16 -56 -2 -129 -6 -162 -9 -56 -4 -85 4 -85
24 0 13 28 11 32 -2 3 -8 15 -6 41 4 23 10 39 12 43 6 3 -6 10 -6 17 -1 21 16
90 22 319 28 123 3 225 7 227 10 6 5 6 5 25 -2z m1946 -4 c0 -5 -7 -10 -15
-10 -8 0 -15 5 -15 10 0 6 7 10 15 10 8 0 15 -4 15 -10z m6380 -17 c0 -10 6
-12 21 -8 15 5 19 4 15 -4 -8 -13 -46 -15 -46 -3 0 5 -10 8 -22 7 -24 -2 -59
15 -53 25 2 3 22 4 44 2 28 -3 41 -9 41 -19z m-9049 -46 c-5 -5 -43 -10 -83
-11 -58 -1 -73 2 -76 14 -2 13 10 16 65 18 37 2 69 5 72 7 2 3 10 0 18 -7 9
-7 10 -15 4 -21z m-251 14 c0 -5 18 -7 40 -5 22 2 40 -1 40 -7 0 -12 -41 -29
-53 -22 -15 9 -69 9 -126 1 -31 -5 -73 -10 -94 -13 -20 -2 -79 -8 -130 -14
-142 -17 -307 -20 -307 -7 0 21 18 40 42 43 13 2 100 5 195 6 95 2 175 5 178
9 4 3 19 2 35 -2 18 -5 44 -4 68 3 48 15 112 19 112 8z m-630 -23 c0 -5 -10
-18 -22 -29 -21 -17 -33 -18 -123 -12 -55 3 -118 7 -140 8 -77 3 -85 5 -85 18
0 7 14 14 32 15 18 2 33 4 34 5 9 8 304 4 304 -5z m8740 -538 c0 -13 14 -27
43 -41 23 -12 53 -32 67 -45 16 -14 48 -28 80 -34 30 -6 83 -19 116 -31 55
-18 69 -29 133 -102 114 -129 161 -255 161 -426 0 -135 -56 -248 -189 -382
-79 -79 -162 -124 -258 -139 -46 -7 -73 -17 -83 -30 -19 -25 -117 -47 -133
-31 -9 9 -14 149 -19 484 -3 260 -10 526 -13 593 l-7 121 31 22 c17 12 31 31
31 42 0 12 7 19 20 19 13 0 20 -7 20 -20z m-7895 -76 c14 -15 15 -19 2 -31 -8
-8 -33 -17 -56 -20 -43 -6 -48 -12 -30 -30 21 -21 69 -495 69 -685 0 -125 -15
-305 -30 -350 -9 -29 -5 -31 80 -40 14 -2 25 -9 25 -17 0 -11 -25 -19 -93 -28
-116 -17 -317 -7 -317 16 0 18 20 28 68 36 l37 6 0 107 c0 193 -53 900 -71
950 -8 20 -15 22 -77 22 -78 0 -89 6 -65 32 12 13 32 18 77 19 34 0 106 7 161
14 147 18 200 18 220 -1z m609 7 c69 -6 94 -21 59 -36 -10 -4 -52 -11 -93 -14
-67 -5 -75 -8 -73 -26 4 -39 49 -241 56 -252 5 -8 48 -11 130 -10 148 1 257
-17 257 -43 0 -24 -27 -29 -140 -31 -52 -1 -122 -4 -155 -8 -55 -6 -60 -8 -60
-31 -1 -51 16 -147 36 -205 18 -51 21 -86 22 -230 1 -93 -2 -179 -7 -189 -8
-17 -6 -18 28 -12 57 11 226 -4 226 -20 0 -22 -18 -26 -159 -40 -75 -7 -163
-21 -196 -31 -88 -25 -130 -23 -163 10 l-27 28 -1 167 c0 92 -4 341 -9 555 -9
463 -19 428 114 426 47 -1 117 -4 155 -8z m6857 -1 c10 -6 19 -17 19 -24 0
-15 -42 -36 -74 -36 -30 0 -39 -10 -24 -27 21 -26 59 -367 65 -589 6 -210 -8
-436 -28 -460 -10 -12 30 -24 83 -24 23 0 29 -4 26 -17 -2 -14 -21 -21 -83
-30 -100 -15 -321 -7 -329 13 -7 18 13 31 59 38 22 3 41 5 43 6 8 1 0 316 -13
490 -18 249 -44 537 -50 568 -5 20 -11 22 -80 22 -55 0 -75 3 -75 13 0 26 25
37 90 38 36 0 108 6 160 13 123 17 187 19 211 6z m-3368 -53 c21 -9 39 -28 51
-53 10 -21 23 -47 27 -56 5 -10 9 -25 9 -34 0 -10 33 -85 74 -168 41 -84 89
-188 106 -231 45 -115 82 -195 89 -195 3 0 6 141 6 313 0 171 4 324 8 340 9
32 31 35 99 11 104 -35 123 -101 127 -427 1 -158 -2 -233 -9 -243 -7 -7 -16
-73 -20 -145 -5 -73 -14 -137 -20 -143 -14 -14 -117 8 -141 30 -10 9 -26 37
-36 63 -9 25 -39 83 -65 128 -26 45 -71 128 -98 185 -55 112 -77 142 -66 93 3
-16 9 -93 13 -170 4 -109 2 -163 -11 -240 -21 -124 -44 -205 -59 -209 -7 -2
-29 -9 -50 -15 -35 -12 -41 -11 -71 12 -48 37 -76 147 -87 347 -5 85 -13 198
-19 250 -5 52 -10 195 -10 318 l0 223 33 14 c41 18 79 19 120 2z m2286 -66
c40 -29 85 -146 79 -206 -3 -23 -12 -56 -20 -72 l-15 -30 53 -12 c48 -11 60
-19 100 -69 60 -73 76 -108 108 -223 32 -118 32 -142 5 -246 -16 -60 -26 -83
-38 -83 -9 0 -27 -16 -41 -35 -14 -19 -34 -38 -45 -41 -11 -4 -38 -19 -60 -34
-75 -50 -122 -63 -235 -64 -81 -2 -113 -6 -139 -20 -35 -18 -35 -18 -53 5 -10
13 -29 36 -43 51 -14 16 -26 46 -31 73 -3 26 -1 217 5 424 16 510 17 521 34
538 9 9 42 17 83 20 39 3 76 12 85 20 43 37 119 38 168 4z m-3139 -16 c14 -8
35 -14 48 -15 31 0 56 -45 93 -165 108 -347 127 -401 230 -668 62 -161 66
-179 43 -202 -18 -17 -19 -16 -49 18 -39 45 -87 140 -141 282 l-41 110 -64 0
-64 0 -26 -155 c-40 -244 -75 -356 -118 -379 -28 -15 -84 -14 -106 3 -18 13
-19 25 -17 118 3 102 35 422 72 718 10 85 22 187 26 225 6 62 10 73 38 97 36
31 42 32 76 13z m1884 -26 c31 -17 61 -39 66 -49 16 -29 29 -186 40 -485 8
-222 14 -283 25 -295 21 -20 30 -8 104 135 121 232 123 239 131 418 8 178 14
193 86 234 45 26 91 29 120 8 20 -13 22 -28 29 -202 10 -255 8 -550 -6 -647
-11 -80 -38 -151 -68 -173 -9 -7 -35 -15 -59 -19 -48 -7 -72 6 -72 40 0 12 -5
27 -11 33 -5 5 -14 65 -19 133 -9 112 -14 141 -23 129 -2 -2 -30 -44 -63 -93
-32 -49 -81 -107 -108 -130 -27 -22 -63 -56 -80 -73 -18 -18 -38 -33 -45 -33
-29 0 -140 62 -156 86 -18 27 -21 64 -45 504 -5 107 -10 269 -10 359 l0 163
54 -6 c31 -4 80 -21 110 -37z m3896 21 c30 -10 62 -28 71 -39 15 -19 40 -91
116 -341 34 -109 101 -298 169 -472 59 -150 64 -182 35 -198 -16 -8 -24 -4
-47 23 -34 40 -104 183 -147 302 l-33 90 -61 3 c-72 3 -64 17 -93 -158 -39
-239 -76 -357 -119 -379 -28 -15 -84 -14 -106 3 -18 13 -18 21 -6 207 7 107
16 228 21 269 80 695 73 646 105 680 16 16 31 30 34 30 3 -1 31 -9 61 -20z
m-7084 -15 c12 -8 27 -29 34 -47 8 -18 22 -46 33 -61 11 -16 32 -70 47 -122
31 -103 105 -413 115 -487 4 -26 11 -46 15 -43 4 2 13 39 19 82 19 119 62 276
82 297 17 18 23 19 89 7 117 -21 139 -53 190 -274 22 -94 43 -146 53 -130 8
12 35 251 47 410 9 126 31 188 65 188 19 0 20 -6 18 -180 -1 -177 -17 -309
-58 -495 -7 -36 -17 -86 -20 -111 -9 -68 -29 -82 -109 -77 -51 3 -71 9 -90 27
-28 26 -65 105 -107 228 -49 145 -60 173 -70 173 -5 0 -9 -15 -9 -33 0 -17 -5
-48 -10 -67 -6 -19 -22 -105 -35 -190 -14 -85 -30 -165 -35 -177 -10 -25 -46
-31 -78 -14 -9 6 -38 17 -64 27 -39 13 -50 24 -67 59 -27 58 -138 447 -162
565 -29 150 -70 323 -81 343 -16 31 -2 60 44 90 48 31 110 36 144 12z m-2853
-20 c42 -41 56 -83 66 -184 9 -101 7 -131 -9 -131 -5 0 -16 26 -25 57 -20 67
-57 144 -79 162 -12 10 -19 11 -30 2 -50 -42 -64 -183 -47 -486 15 -263 24
-323 52 -381 37 -72 64 -77 116 -22 21 22 49 115 68 219 10 53 20 66 39 50 12
-10 16 -31 15 -80 -1 -194 -32 -296 -114 -376 -41 -39 -52 -45 -89 -45 -43 0
-133 41 -188 85 -43 35 -79 109 -94 197 -23 125 -22 566 0 673 22 101 66 170
147 230 53 39 68 45 109 45 29 0 54 -6 63 -15z m11597 -398 c0 -12 -5 -29 -10
-37 -7 -11 -10 -3 -10 28 0 26 4 41 10 37 6 -3 10 -16 10 -28z m-9050 -1528
c0 -5 33 -9 73 -9 43 0 78 -5 85 -12 9 -9 12 -9 12 -1 0 14 143 5 148 -9 5
-11 30 -10 34 2 2 6 15 3 32 -5 30 -16 73 -12 47 4 -7 4 23 7 66 5 43 -2 176
-5 295 -7 159 -3 221 -7 232 -16 13 -11 16 -11 16 3 0 9 7 16 15 16 8 0 15 -4
15 -9 0 -22 -31 -30 -103 -28 -45 1 -77 -2 -77 -7 0 -6 -5 -5 -11 1 -7 7 -21
8 -39 3 -16 -5 -44 -5 -62 -2 -18 4 -127 7 -243 6 -115 0 -213 3 -216 8 -3 5
-18 2 -33 -6 -19 -9 -48 -12 -94 -9 -162 11 -401 16 -532 12 -19 0 -62 0 -96
1 -33 2 -70 -1 -83 -5 -12 -3 -28 -2 -34 4 -8 6 -39 8 -77 5 -116 -10 -175
-10 -197 0 -38 16 -26 26 35 28 472 14 633 23 717 37 44 8 75 4 75 -10z m3237
-3 c4 -4 2 -10 -4 -14 -7 -5 -9 -13 -4 -21 6 -9 43 -14 132 -17 68 -2 162 -6
209 -10 47 -3 155 -7 240 -9 85 -2 155 -4 155 -4 0 -6 118 -12 242 -14 136 -2
142 -1 166 22 27 25 20 25 267 8 72 -5 253 -7 465 -4 114 2 345 -7 365 -14 3
-1 9 -1 13 0 5 1 75 4 155 8 243 10 290 12 472 23 96 6 249 13 340 16 91 3
183 7 205 8 41 4 95 -10 95 -24 0 -23 -144 -35 -174 -14 -25 18 -37 18 -30 1
3 -9 -8 -13 -40 -13 -25 -1 -43 3 -40 8 3 4 -7 3 -23 -3 -15 -6 -44 -12 -63
-14 -19 -2 -55 -7 -80 -10 -89 -11 -168 -9 -184 4 -12 10 -19 11 -30 2 -7 -6
-21 -9 -30 -5 -9 3 -16 1 -16 -5 0 -6 -25 -10 -64 -10 -36 1 -75 -2 -87 -6
-14 -5 -25 -2 -30 6 -7 11 -9 11 -9 1 0 -8 -8 -10 -25 -6 -13 3 -38 1 -54 -4
-31 -11 -54 -1 -64 28 -4 11 -6 9 -6 -5 -1 -19 -9 -20 -133 -23 -214 -6 -262
-4 -267 9 -2 8 -5 8 -11 0 -13 -22 -59 -25 -290 -22 -85 2 -171 0 -191 -4 -20
-4 -39 -3 -42 2 -6 9 -126 7 -135 -2 -3 -2 -13 0 -23 6 -12 6 -19 6 -19 0 0
-9 -63 -7 -135 5 -36 5 -83 6 -233 2 -68 -2 -113 1 -115 7 -2 6 -10 5 -20 -3
-9 -8 -21 -10 -28 -7 -22 14 -245 22 -258 9 -2 -2 -13 3 -23 12 -13 13 -21 14
-31 6 -7 -6 -27 -12 -43 -12 -16 0 -38 0 -49 0 -11 0 -63 2 -115 5 -105 6 -99
6 -226 4 -88 -1 -141 12 -129 31 8 13 -12 22 -58 24 -23 1 -47 5 -54 9 -6 4
-13 3 -15 -2 -4 -12 -70 -17 -86 -7 -14 9 -154 12 -168 4 -16 -9 -112 -9 -118
0 -6 10 -48 8 -65 -3 -6 -3 -11 -1 -11 4 0 11 -120 8 -204 -4 -23 -4 -64 -3
-92 2 -31 6 -61 6 -79 0 -21 -7 -30 -7 -33 2 -4 13 -32 15 -32 2 0 -4 -27 -9
-61 -10 -34 -1 -65 -3 -69 -6 -5 -3 -12 -1 -15 5 -5 7 -11 8 -19 1 -6 -5 -41
-10 -76 -10 -215 -1 -352 -6 -356 -13 -3 -5 -9 -6 -14 -3 -12 7 -176 17 -317
19 -68 0 -123 4 -123 8 0 4 -7 5 -15 2 -11 -4 -13 -2 -9 9 8 21 42 28 58 11
10 -9 16 -10 18 -3 5 16 454 24 463 8 6 -8 9 -8 15 1 7 12 212 16 231 5 4 -3
10 -1 14 5 4 6 66 8 173 4 233 -7 498 -8 509 -1 5 3 44 5 86 3 43 -2 80 0 83
5 6 11 480 6 491 -5z m4081 -24 c12 -1 22 -9 22 -17 0 -8 6 -16 13 -16 6 -1
-1 -5 -18 -9 -44 -11 -125 -12 -125 -1 0 15 -102 2 -121 -15 -11 -10 -34 -15
-66 -14 -26 1 -50 1 -53 0 -39 -13 -90 1 -90 24 0 7 -20 10 -54 8 -38 -3 -55
0 -58 10 -4 10 5 14 33 14 22 1 39 -2 39 -6 0 -8 66 -7 75 2 7 6 160 1 182 -7
6 -2 14 3 17 11 6 16 56 20 56 4 0 -5 5 -10 10 -10 6 0 10 6 10 13 0 12 40 15
128 9z m-8408 -23 c8 0 61 3 116 7 71 4 104 2 109 -6 11 -18 -4 -25 -53 -23
-26 1 -51 -2 -57 -6 -5 -5 -59 -9 -120 -11 -139 -2 -298 -8 -396 -16 -63 -5
-77 -3 -82 10 -5 13 1 15 33 12 22 -2 40 1 40 6 0 6 9 8 21 5 12 -3 32 -1 46
4 13 5 67 11 120 14 53 2 97 6 98 7 2 2 27 2 57 0 29 -2 60 -3 68 -3z m8543
-7 c8 -7 17 -9 20 -5 4 3 7 -2 7 -11 0 -14 -5 -16 -17 -10 -10 4 -30 8 -45 8
-15 1 -35 9 -44 18 -17 16 -15 17 24 14 23 -1 47 -8 55 -14z m-9056 -31 c10
-16 9 -20 -12 -24 -14 -2 -50 -4 -82 -3 -49 1 -58 4 -61 21 -3 16 -1 17 9 8 9
-9 18 -9 32 -2 10 6 36 9 57 7 21 -2 36 0 34 4 -3 5 -1 8 3 8 5 0 14 -9 20
-19z m-217 -13 c0 -5 9 -4 19 2 14 7 22 7 26 -1 9 -13 6 -15 -32 -24 -22 -4
-33 -3 -33 5 0 8 -6 8 -20 0 -15 -8 -20 -8 -20 1 0 8 -4 8 -12 1 -7 -5 -53
-13 -103 -17 -49 -3 -139 -12 -200 -20 -60 -7 -150 -14 -198 -14 -85 -2 -88
-1 -82 18 8 26 0 27 -25 3 -20 -18 -27 -19 -175 -8 -44 4 -100 8 -124 9 -47 2
-66 21 -31 32 28 9 350 13 350 4 0 -6 48 -5 298 4 28 1 53 -2 55 -7 2 -6 17
-4 35 3 18 8 47 11 65 9 17 -3 41 -2 52 2 26 11 155 9 155 -2z m7022 -2319
c-5 -85 46 -239 154 -470 78 -167 71 -203 -22 -106 -28 28 -94 111 -147 182
-86 117 -157 200 -157 182 0 -4 52 -105 115 -225 63 -120 118 -233 121 -250
14 -68 -17 -27 -87 116 -40 81 -99 190 -131 242 -46 76 -88 179 -88 215 0 16
22 0 35 -25 9 -16 22 -30 29 -30 20 0 94 -83 204 -231 88 -119 142 -182 142
-167 0 3 -24 56 -54 119 -104 220 -156 389 -142 464 10 51 31 39 28 -16z
m-5162 -30 c92 -44 130 -75 130 -105 0 -33 -10 -30 -55 16 -21 22 -47 40 -56
40 -21 0 -72 -57 -99 -109 -11 -22 -49 -113 -84 -203 -86 -215 -142 -339 -152
-338 -17 2 -5 46 36 134 23 50 55 126 71 170 74 198 119 288 166 337 l35 36
-33 12 c-17 6 -47 11 -65 11 -27 0 -31 -3 -27 -20 4 -14 0 -20 -11 -20 -9 0
-16 2 -16 4 0 2 -3 11 -6 19 -8 23 24 47 64 47 21 0 66 -14 102 -31z m4726
-141 c4 -7 -5 -22 -24 -38 -18 -15 -32 -34 -32 -44 0 -9 42 -112 94 -229 80
-183 117 -272 132 -324 2 -10 10 -10 29 -3 34 13 43 7 37 -25 -4 -23 -9 -25
-46 -24 -22 1 -59 -6 -81 -14 -22 -8 -43 -13 -47 -10 -19 11 -5 34 32 53 22
11 40 27 40 36 0 8 -15 54 -34 102 -34 85 -184 423 -192 431 -2 3 -24 -5 -48
-17 -51 -26 -56 -26 -56 -9 0 8 23 24 50 37 34 16 52 31 56 47 10 38 73 60 90
31z m-4252 -121 c28 -38 33 -148 12 -241 -30 -126 -121 -290 -179 -323 -12 -7
-39 -12 -60 -13 -122 -1 -127 207 -11 443 55 112 82 150 101 143 8 -3 24 1 36
9 32 23 76 15 101 -18z m3707 -56 c1 -9 0 -26 -1 -39 -2 -28 44 -170 78 -237
29 -58 79 -125 94 -125 24 0 128 -54 125 -64 -3 -6 -11 -9 -18 -7 -8 2 -23 6
-34 9 -11 3 16 -23 60 -58 100 -80 108 -88 100 -100 -6 -9 -122 78 -223 167
-24 21 -48 33 -67 33 -21 0 -26 -3 -16 -9 23 -15 3 -31 -25 -21 -51 20 -51 24
-14 -155 25 -124 28 -175 10 -175 -17 0 -29 45 -45 159 -7 58 -27 162 -44 231
-44 184 -63 348 -45 393 8 21 64 19 65 -2z m-3407 -10 c29 -32 23 -120 -17
-251 -70 -225 -83 -314 -53 -355 12 -16 16 -17 30 -6 9 7 16 17 16 21 0 4 34
77 75 163 92 191 134 296 142 353 3 28 11 44 19 44 44 0 -12 -158 -166 -473
-64 -131 -85 -156 -119 -138 -52 28 -52 129 0 303 55 183 72 263 65 291 -9 36
-31 44 -56 22 -19 -17 -20 -17 -20 1 0 44 53 59 84 25z m553 -122 c82 -22 123
-47 123 -74 0 -20 -17 -19 -50 5 -15 11 -39 24 -53 29 -22 9 -29 6 -47 -16
-32 -42 -65 -179 -85 -358 -8 -77 -53 -327 -60 -334 -16 -16 -20 23 -9 84 7
39 26 162 43 275 31 210 51 296 78 336 19 30 9 44 -32 44 -46 0 -65 -9 -65
-31 0 -24 -16 -24 -29 0 -8 14 -6 22 7 34 36 31 76 33 179 6z m2427 -17 c31
-29 56 -89 56 -137 0 -51 -9 -72 -52 -127 l-29 -37 46 -6 c93 -14 152 -83 199
-233 30 -95 32 -122 11 -122 -8 0 -15 9 -15 20 0 11 -13 62 -30 113 -35 111
-78 167 -139 186 -46 13 -135 5 -151 -14 -9 -11 21 -208 47 -314 4 -17 2 -22
-8 -19 -16 5 -28 45 -64 208 -35 157 -38 186 -39 332 -1 140 0 141 69 172 32
15 66 8 99 -22z m3569 -67 c-15 -19 -29 -32 -32 -29 -4 4 48 64 56 64 2 0 -9
-16 -24 -35z m-4097 -14 c32 -31 54 -88 54 -137 0 -39 -36 -109 -71 -138 -35
-30 -36 -36 -6 -36 39 -1 103 -37 132 -74 49 -65 111 -316 74 -304 -8 3 -20
41 -30 99 -27 148 -66 216 -137 240 -41 13 -132 13 -146 -1 -8 -8 7 -226 21
-307 4 -26 2 -33 -11 -33 -9 0 -16 3 -16 8 0 4 -5 39 -11 77 -37 254 -44 371
-29 497 11 89 15 100 35 108 13 5 26 14 30 19 3 6 23 11 44 11 28 0 45 -7 67
-29z m-459 -7 c2 -7 -31 -15 -88 -22 -50 -6 -94 -13 -96 -16 -3 -3 0 -28 6
-56 6 -28 11 -73 11 -99 0 -27 3 -63 6 -81 l7 -32 53 6 c44 5 54 3 54 -9 0
-11 -11 -15 -36 -15 -72 0 -74 -4 -74 -165 0 -79 3 -150 6 -159 8 -20 39 -20
90 -2 66 23 124 30 124 14 0 -13 -109 -47 -181 -55 -62 -8 -63 -2 -71 291 -5
166 -12 284 -21 324 -17 73 -22 67 78 81 85 11 127 10 132 -5z m-424 -31 c28
-14 45 -39 34 -49 -3 -4 -33 4 -67 15 -45 16 -66 19 -75 11 -28 -24 -35 -102
-35 -414 0 -280 -2 -316 -16 -316 -13 0 -15 38 -12 343 3 305 5 346 21 375
l18 32 -29 0 c-16 0 -43 -5 -60 -11 -27 -9 -31 -15 -26 -35 5 -18 2 -24 -10
-24 -20 0 -33 47 -17 63 37 38 208 44 274 10z m4866 -83 c-18 -22 -36 -40 -42
-40 -5 0 6 18 23 40 17 22 36 40 41 40 6 0 -5 -18 -22 -40z m-9464 -58 c-3 -3
-6 -3 -7 -1 -2 2 -14 18 -28 34 l-25 30 32 -29 c18 -16 31 -32 28 -34z"/>
<path d="M10347 15290 c-10 -40 -16 -75 -13 -77 6 -6 39 123 34 137 -2 7 -11
-21 -21 -60z"/>
<path d="M10346 15113 c-10 -49 -19 -92 -20 -98 -1 -5 18 -12 42 -15 23 -4 42
-6 42 -6 0 1 -7 26 -15 56 -8 30 -15 76 -15 103 0 26 -3 47 -8 47 -4 0 -16
-39 -26 -87z"/>
<path d="M8191 14994 c-27 -35 -27 -92 0 -180 11 -38 24 -72 28 -77 16 -16
156 103 185 157 18 33 18 37 2 61 -24 37 -87 65 -145 65 -42 0 -53 -4 -70 -26z"/>
<path d="M12130 11679 c0 -5 5 -7 10 -4 6 3 10 8 10 11 0 2 -4 4 -10 4 -5 0
-10 -5 -10 -11z"/>
<path d="M14130 10933 c0 -4 10 -42 21 -83 18 -65 22 -111 26 -358 3 -174 1
-313 -6 -362 -11 -80 -36 -145 -65 -169 -34 -29 -13 -31 35 -4 184 101 331
361 316 560 -7 99 -50 182 -148 287 -67 71 -179 153 -179 129z"/>
<path d="M12352 10873 c-19 -17 -21 -31 -24 -196 -2 -97 -2 -177 0 -177 18 0
78 67 98 108 55 120 56 186 2 247 -34 40 -47 42 -76 18z"/>
<path d="M12357 10428 c-14 -11 -18 -39 -22 -188 -3 -108 -12 -214 -24 -275
-10 -55 -17 -102 -16 -103 10 -11 78 36 135 91 121 118 151 235 94 363 -48
107 -114 151 -167 112z"/>
<path d="M9417 10498 c-3 -18 -9 -60 -12 -93 -4 -33 -9 -69 -12 -79 -5 -17 -1
-18 37 -13 23 3 46 9 51 14 7 7 -42 188 -55 200 -2 2 -6 -11 -9 -29z"/>
<path d="M15180 10521 c0 -16 -20 -165 -26 -190 -5 -23 -3 -24 37 -18 23 3 45
9 50 14 5 5 -4 50 -21 106 -28 87 -40 115 -40 88z"/>
<path d="M12130 8859 c0 -5 5 -7 10 -4 6 3 10 8 10 11 0 2 -4 4 -10 4 -5 0
-10 -5 -10 -11z"/>
<path d="M8127 6199 c-47 -35 -117 -144 -148 -230 -33 -92 -48 -217 -30 -262
16 -42 54 -55 96 -32 36 19 101 108 131 180 48 114 69 280 41 335 -16 32 -54
36 -90 9z"/>
<path d="M11902 6070 c-1 -19 3 -53 7 -75 l9 -40 0 45 c0 25 -4 59 -8 75 l-8
30 0 -35z"/>
<path d="M11956 5875 c3 -44 8 -87 9 -95 2 -11 12 -14 41 -12 21 2 40 5 42 6
1 2 -13 29 -33 61 -19 33 -35 64 -35 69 0 6 -8 20 -16 31 -14 18 -15 13 -8
-60z"/>
<path d="M11423 6009 c-39 -14 -46 -44 -39 -163 11 -172 10 -171 61 -131 62
47 95 101 95 157 0 91 -58 159 -117 137z"/>
<path d="M10884 5922 c-27 -17 -34 -56 -34 -176 0 -69 4 -127 8 -130 15 -9
118 80 135 117 9 19 17 51 17 71 0 42 -32 111 -55 120 -22 8 -57 7 -71 -2z"/>
<path d="M11175 16740 c3 -5 14 -10 23 -10 15 0 15 2 2 10 -20 13 -33 13 -25
0z"/>
<path d="M6480 15580 c-8 -5 -12 -12 -9 -15 4 -3 12 1 19 10 14 17 11 19 -10
5z"/>
<path d="M16862 10460 c0 -14 2 -19 5 -12 2 6 2 18 0 25 -3 6 -5 1 -5 -13z"/>
<path d="M16806 9704 c-4 -14 -5 -29 -2 -31 3 -3 8 7 12 21 3 15 4 29 1 32 -2
3 -8 -7 -11 -22z"/>
<path d="M4935 6293 c8 -18 18 -33 20 -33 10 0 4 16 -16 40 l-20 25 16 -32z"/>
<path d="M5410 5690 c0 -5 5 -10 11 -10 5 0 7 5 4 10 -3 6 -8 10 -11 10 -2 0
-4 -4 -4 -10z"/>
<path d="M5440 5666 c0 -2 8 -10 18 -17 15 -13 16 -12 3 4 -13 16 -21 21 -21
13z"/>
<path d="M3675 5091 c-75 -13 -84 -33 -32 -77 38 -33 205 -113 297 -142 36
-12 165 -44 287 -71 178 -39 250 -61 360 -106 76 -31 167 -69 202 -83 62 -26
63 -27 34 -34 -24 -6 -29 -13 -31 -42 -5 -71 64 -91 97 -28 10 19 10 28 -3 47
l-16 24 48 -17 c72 -26 86 -37 77 -58 -21 -48 18 -109 71 -112 42 -3 84 34 84
73 0 23 3 25 23 19 115 -37 412 -116 452 -121 28 -3 61 -11 75 -18 42 -21 103
-40 294 -95 60 -17 111 -28 114 -26 2 3 13 1 23 -4 10 -6 58 -21 107 -34 49
-13 105 -31 123 -39 19 -8 57 -19 86 -25 28 -6 92 -29 141 -52 49 -22 96 -40
104 -40 7 0 41 -9 73 -21 45 -16 74 -20 118 -16 45 4 60 2 64 -9 3 -8 19 -14
38 -14 18 0 49 -7 68 -15 41 -17 81 -20 72 -5 -13 21 13 9 28 -12 12 -18 18
-20 28 -11 15 15 31 7 119 -58 40 -29 95 -58 140 -73 66 -22 107 -33 271 -77
27 -7 39 -16 43 -34 5 -18 13 -25 30 -25 13 0 26 6 29 14 4 11 14 13 34 7 24
-6 28 -12 27 -42 0 -19 6 -40 13 -47 7 -7 13 -20 13 -28 0 -8 4 -14 9 -14 15
0 22 -30 11 -50 -5 -10 -20 -20 -32 -22 -18 -2 -23 -10 -23 -32 0 -17 7 -33
18 -40 15 -9 22 -7 38 13 10 12 16 27 13 33 -12 19 6 58 27 58 16 0 19 -4 14
-20 -6 -20 9 -50 26 -50 4 0 15 7 23 16 12 12 13 20 6 35 -9 16 -7 21 13 28
12 5 29 16 36 25 17 21 53 22 45 1 -4 -9 0 -15 10 -15 9 0 16 5 16 10 0 6 7
10 15 10 8 0 15 -5 15 -10 0 -6 14 -5 34 4 31 13 38 12 84 -9 27 -13 52 -29
54 -35 2 -8 28 -14 66 -15 41 -2 69 -8 81 -19 10 -9 25 -16 35 -16 9 0 29 -9
44 -20 15 -11 103 -39 197 -63 94 -24 193 -55 220 -69 88 -45 304 -106 571
-163 146 -30 223 -56 374 -125 215 -97 310 -132 415 -150 33 -6 148 -40 255
-75 372 -121 628 -170 638 -121 5 25 -71 94 -199 181 -105 71 -210 116 -303
130 -27 3 -59 13 -70 20 -12 7 -56 23 -99 35 -70 19 -197 67 -237 89 -9 5 -31
12 -50 16 -48 10 -52 13 -40 36 8 14 17 18 34 13 26 -6 40 14 26 36 -7 12 -13
12 -32 1 -30 -15 -78 0 -85 29 -8 31 -56 35 -102 9 -33 -18 -43 -20 -56 -9 -8
7 -15 18 -15 25 0 7 -11 15 -25 17 -20 4 -26 1 -31 -18 -3 -13 -8 -24 -9 -24
-24 0 -174 25 -220 36 -106 27 -210 58 -215 66 -10 13 -63 29 -80 23 -9 -3
-39 7 -66 22 -47 27 -55 28 -164 26 -136 -3 -149 0 -146 30 2 19 -8 27 -65 52
-38 17 -69 33 -69 38 0 4 -9 7 -21 7 -11 0 -53 13 -92 29 -40 16 -87 32 -105
35 -19 3 -47 17 -64 31 -16 14 -36 25 -45 25 -8 0 -26 9 -39 19 -14 11 -33 17
-44 14 -13 -3 -32 5 -55 26 -20 17 -37 31 -39 31 -24 0 -195 44 -227 59 -24
10 -70 22 -102 26 -32 4 -75 14 -95 23 -33 14 -34 16 -14 20 65 10 -16 43
-121 48 -47 2 -73 8 -78 17 -5 7 -27 19 -51 26 -24 7 -59 22 -79 32 -45 23
-73 25 -65 4 3 -8 4 -15 2 -15 -2 0 -52 23 -112 52 -73 35 -119 51 -141 50
-18 -2 -33 2 -33 8 0 5 -6 10 -14 10 -7 0 -25 11 -40 25 -30 28 -39 30 -67 14
-16 -8 -29 -6 -60 10 -47 25 -59 26 -59 6 0 -8 -9 -15 -20 -15 -11 0 -20 5
-20 10 0 6 -4 10 -10 10 -5 0 -19 9 -30 20 -11 11 -29 20 -40 20 -27 0 -132
36 -178 61 -20 10 -54 22 -75 26 -21 3 -43 13 -50 23 -7 10 -32 20 -61 23 -27
4 -63 16 -81 27 -18 11 -85 34 -148 50 -63 16 -126 34 -140 41 -16 7 -37 8
-54 4 -39 -11 -58 -7 -133 27 -53 24 -74 29 -112 24 -40 -4 -52 -1 -75 18 -42
33 -167 70 -244 70 -56 1 -70 5 -85 23 -12 14 -34 24 -60 27 -66 7 -117 33
-111 55 11 42 -30 66 -63 36 -13 -12 -24 -12 -54 -4 -24 7 -36 15 -33 24 4 9
-1 11 -14 8 -15 -4 -20 1 -25 26 -5 21 -11 30 -20 27 -7 -3 -16 -1 -20 5 -3 6
-13 8 -21 5 -8 -3 -24 -1 -35 5 -14 7 -18 7 -14 0 22 -34 -113 -34 -147 1 -15
15 -30 18 -89 15 -59 -3 -72 0 -75 13 -8 29 -73 53 -145 55 -43 2 -77 8 -92
19 -14 9 -30 16 -35 16 -5 0 -16 6 -23 14 -12 11 -111 46 -132 46 -3 0 -6 -7
-6 -15 0 -18 -11 -18 -65 -4 -22 5 -65 11 -96 13 -33 2 -83 16 -125 34 -59 25
-85 30 -184 35 -63 2 -133 2 -155 -2z"/>
<path d="M5130 4975 c-20 -25 -8 -50 25 -50 21 0 31 5 33 18 4 21 -14 47 -33
47 -7 0 -18 -7 -25 -15z"/>
<path d="M5356 4848 c-2 -7 -7 -25 -10 -41 -6 -26 -5 -27 21 -21 41 10 60 30
47 52 -14 21 -53 28 -58 10z"/>
<path d="M8120 3440 c-11 -20 -4 -70 10 -70 5 0 15 -2 22 -5 23 -9 60 33 52
58 -4 12 -12 25 -18 29 -21 14 -55 8 -66 -12z"/>
<path d="M10165 3360 c-9 -15 4 -30 26 -30 12 0 19 7 19 20 0 21 -33 29 -45
10z"/>
<path d="M10322 3277 c-15 -17 1 -42 23 -33 18 6 17 37 -1 43 -6 2 -16 -2 -22
-10z"/>
</g>
</svg>
